<svg id="Capa_1" data-name="Capa 1" xmlns="http://www.w3.org/2000/svg" viewBox="0 0 3670.99 1009.92"><defs><style>.cls-1{fill:#00518d;}.cls-2{fill:#00508c;}.cls-3{fill:#00497f;}.cls-4{fill:#fff;}.cls-5{fill:#87adc9;}.cls-6{fill:#448ab2;}.cls-7{fill:#4485a9;}.cls-8{fill:#6eaec6;}.cls-9{fill:#8fc8db;}.cls-10{fill:#cae8f0;}.cls-11{fill:#b2c9d9;}.cls-12{fill:#c1d4e3;}.cls-13{fill:#aed8e4;}.cls-14{fill:#3273a3;}.cls-15{fill:#b6ccdd;}.cls-16{fill:#cecfdf;}.cls-17{fill:#598cb3;}.cls-18{fill:#b3cdde;}.cls-19{fill:#719dbe;}.cls-20{fill:#62aac7;}.cls-21{fill:#6f9cbe;}.cls-22{fill:#d9eff4;}.cls-23{fill:#e6eff4;}.cls-24{fill:#7fa5c0;}.cls-25{fill:#467fa5;}.cls-26{fill:#97b6cf;}.cls-27{fill:#9fb5cf;}.cls-28{fill:#9eb5ce;}.cls-29{fill:#e7e7e7;}</style></defs><title>pro</title><path class="cls-1" d="M2830.71,340.77a75.17,75.17,0,0,0,53,21.8q31.14,0,53.4-21.8t22.25-53q0-31.14-22.25-53T2883.71,213a74.85,74.85,0,0,0-69,45.4,77.39,77.39,0,0,0,0,58.74A75.4,75.4,0,0,0,2830.71,340.77Z" transform="translate(-50.17 -40.89)"/><path class="cls-1" d="M3591.17,421.32,3485.25,685.68H3479L3368.65,421.32H3154.16V287.81h-116.6V421.32H2698.78L2589.3,699h-6.23L2474.48,421.32H2341.85L2383,517.89a212.09,212.09,0,0,0-34.43-45.36q-30.69-30.7-73-48.06t-93-17.36q-50.73,0-93,17.36t-73,48.06a212.43,212.43,0,0,0-31.74,40.77l26.44-88.41a101,101,0,0,0-28-12.85q-16.47-4.95-39.61-5a124.32,124.32,0,0,0-37.82,6.11,168,168,0,0,0-35.61,16,155.89,155.89,0,0,0-29.82,23.27,112.58,112.58,0,0,0-21.4,29.42h-7.12V421.32H1706.41q0-44.49-16.92-81.44a194.33,194.33,0,0,0-46.24-63.64q-29.37-26.7-69-41.39t-85-14.69H1264.92V857.47h120.16V623.37h104.17q45.39,0,85-14.68t69-41.39a194.1,194.1,0,0,0,46.28-63.64,180.51,180.51,0,0,0,13-40.56V857.47h116.6V642.72a157,157,0,0,1,7.57-49.65,124.52,124.52,0,0,1,21.36-39.82,96,96,0,0,1,33.29-26.36q19.56-9.36,43.61-9.4,18.69,0,31.6,3.12a113.75,113.75,0,0,1,20.4,7c-3,5.94-5.85,12-8.43,18.39q-17.35,42.72-17.35,93.45t17.35,93.46q17.37,42.75,48.07,73.43t73,48.07q42.27,17.37,93,17.36t93-17.36q42.27-17.35,73-48.07t48.07-73.43Q2414,690.19,2414,639.45a254.05,254.05,0,0,0-10-72.24l123.83,290.32h114.82L2825.78,432.3V857.53h116.6V521h95.15V716.35q0,75.4,41.83,116.29,17.82,18.17,44.06,28.62t59.19,10.45a256.33,256.33,0,0,0,52.07-4.9,192.72,192.72,0,0,0,44.06-14.68l-32.93-102.37a74.25,74.25,0,0,1-16.9,8.46q-8.91,3.15-24,3.12-23.16,0-35.62-14.68a46.8,46.8,0,0,1-12-22.47,125.94,125.94,0,0,1-3.12-28.9V521h125.94L3419.4,836.1l-97,213.62h125.5l273.27-628.4ZM1551.35,346.37l-67,167.42a2.49,2.49,0,0,1-4.52,0L1452.3,442.1l-71.7-27.53a2,2,0,0,1-1.43-1.44,2.51,2.51,0,0,1,1.37-3.26l.06,0,167.65-66.95a2,2,0,0,1,2.67.41A3.17,3.17,0,0,1,1551.35,346.37Zm736.73,345.52q-9.35,23.16-25.37,39.16a109.94,109.94,0,0,1-36.94,24.48,115.53,115.53,0,0,1-86.79,0,111.18,111.18,0,0,1-36.49-24.48q-16-16-25.37-39.16t-9.34-52.52q0-29.37,9.34-52.51t25.37-39.16A111.33,111.33,0,0,1,2139,523.22a115.53,115.53,0,0,1,86.79,0,110.24,110.24,0,0,1,36.94,24.48q16,16,25.37,39.16t9.34,52.51Q2297.42,668.79,2288.08,691.89Z" transform="translate(-50.17 -40.89)"/><path class="cls-2" d="M1060.09,183V579.45c-3.61,1-5.13-2-7-3.91-21.65-21.52-42.89-43.45-64.86-64.63-31.07-30-60.93-61.11-92-91-27.77-26.69-54.57-54.34-82-81.32-5.81-5.71-12.31-10.69-17.73-16.8-1.26-1.42-2.92-1.86-4.55-2.45a3,3,0,0,1-.88-1.1c-2.92-7-2.92-7-10.22-5.17-31.75,13.51-64,25.86-96,38.71Q552.41,404.9,419.93,457.69q-45.19,18-90.37,36.06a31.11,31.11,0,0,0-3.09,1.31c-2.16,1.14-4.27,2.34-4.25,5.26,0,2.68,1.88,3.9,3.95,4.92a10.88,10.88,0,0,1,3.89,2.74c1.32,3.7,4.84,5.41,7.39,8q35,35.17,70.16,70.23,89.52,89.52,179.09,179c2.56,2.56,4.21,6.11,7.9,7.49,2.55,4.05,5.39,7.76,10.47,8.85.87,3,3,5.15,5.17,7.3Q736.42,915,862.58,1041.15c1.91,1.91,4.08,3.64,5.36,6.09,1.16,2.22.46,3.33-2.12,3.09H188.61c-27.86-.32-52.3-10.59-74.5-26.53C81.34,1000.26,60.83,968.48,52.53,929a87.84,87.84,0,0,1-1.4-20V182.84c-.13-31.16,11.53-58.16,29.72-82.7C95.37,80.54,114,65.71,135.78,54.89c16.74-8.32,34.38-13.54,53.3-13.52h7.83c1.32-.18,2.75.45,4-.48h710.4c1.22.93,2.63.3,3.94.48H923c31.43.52,58.34,13,82.36,32.14,26,20.78,43.28,47.56,52,79.76,1.84,6.82,2.07,13.85,2.28,20.87v5.62C1059.76,180.83,1059.24,182,1060.09,183Z" transform="translate(-50.17 -40.89)"/><path class="cls-3" d="M868.11,1049.74c-1.41-1.52-2.76-3.1-4.23-4.56q-128.46-128.49-256.94-257c-1.13-1.13-2.27-2.25-3.36-3.41-.83-.87-.72-1.14.65-2l.8-.54c2.13-7.18,5.43-13.92,8.2-20.85q87.18-218,174.39-436c1-2.42,1.44-5.4,4.73-6.11a11.65,11.65,0,0,0,.8-1.18c.33-.63.75-1.09,1.44-.61a14.14,14.14,0,0,1,1.78,1.6c2.72,2.71,5.29,5.58,8.17,8.11,15,13.22,28.56,27.92,42.78,41.93s27.92,28.65,42.54,42.26c14.39,13.4,28,27.57,42,41.34s27.48,28.17,41.85,41.58,27.8,27.32,41.69,41,27.61,27.56,41.42,41.34c1,1,2.16,1.87,3.25,2.8V908.73c-.7.69-.4,1.58-.48,2.4v7.49c-.16,21.83-8,41.32-19.16,59.47-22.44,36.4-54.48,60-96.16,70.14-6.72,1.64-13.61,1.53-20.43,2.1H912.5q-21.37,0-42.73,0A2.07,2.07,0,0,1,868.11,1049.74Z" transform="translate(-50.17 -40.89)"/><path class="cls-4" d="M189.31,41.74a170.39,170.39,0,0,0-37.73,8.64A152.45,152.45,0,0,0,54.82,161.57,136.7,136.7,0,0,0,52,181c-.76,1.23,0,2.7-.62,4a.88.88,0,0,1-1.19-.06v-144h139.2C190,41.22,190,41.51,189.31,41.74Z" transform="translate(-50.17 -40.89)"/><path class="cls-4" d="M52,910.73c2.56,30.64,13.3,58.11,32.47,82.12,23.23,29.11,53.29,47.28,89.74,54.83,4.69,1,9.47,1.51,14.2,2.25.66.27.68.57,0,.88H50.17v-144a.89.89,0,0,1,1.19,0C52,908,51.22,909.49,52,910.73Z" transform="translate(-50.17 -40.89)"/><path class="cls-4" d="M1059.28,174.28c-1.19-13.65-5-26.65-10.19-39.24a152.56,152.56,0,0,0-106.38-90c-6.54-1.52-13.2-2.36-19.84-3.32-.68-.23-.7-.52-.06-.85h137.28V174.33C1059.78,175,1059.51,175,1059.28,174.28Z" transform="translate(-50.17 -40.89)"/><path class="cls-4" d="M923.79,1050c8.2-1.3,16.41-2.52,24.46-4.69a152.65,152.65,0,0,0,106.86-105.78,122.52,122.52,0,0,0,4.19-21.13c.25-.67.51-.67.79,0v132.48H923.77C923.13,1050.51,923.14,1050.22,923.79,1050Z" transform="translate(-50.17 -40.89)"/><path class="cls-5" d="M52,910.73c-.81-1.12-.75-2.47-1-3.74-.69-.91.11-2.21-.81-3.06V187.77c.92-.83.09-2.14.84-3,.22-1.28.15-2.63,1-3.76a15.86,15.86,0,0,1,.18,2.37c-.63,8.47-.35,16.95-.35,25.42q0,342.6,0,685.19c0,4.47.23,8.95.31,13.42C52.14,908.5,52,909.62,52,910.73Z" transform="translate(-50.17 -40.89)"/><path class="cls-6" d="M868.11,1049.74l.93.26c.33.18.44.36.34.54s-.22.27-.33.27H199c-.31-.18-.42-.36-.33-.56s.19-.31.29-.31c2.08,0,4.16-.08,6.23-.08H860.91C863.31,1049.85,865.71,1049.78,868.11,1049.74Z" transform="translate(-50.17 -40.89)"/><path class="cls-7" d="M869.05,1050.81c0-.27,0-.54,0-.81,6.35,0,12.69-.14,19-.14,8.41,0,16.82.09,25.22.14.35.21.45.41.31.58a.51.51,0,0,1-.39.23Z" transform="translate(-50.17 -40.89)"/><path class="cls-8" d="M913.21,1050.81c0-.27,0-.54.08-.81h4.79q.54.32.33.57a.53.53,0,0,1-.4.24Z" transform="translate(-50.17 -40.89)"/><path class="cls-9" d="M192.2,1050l3.83,0c.7.2.72.47.06.78h-3.84c-.39-.15-.53-.33-.41-.52S192.08,1050,192.2,1050Z" transform="translate(-50.17 -40.89)"/><path class="cls-10" d="M192.2,1050a7.34,7.34,0,0,1,.05.81h-3.84c0-.29,0-.58,0-.88Z" transform="translate(-50.17 -40.89)"/><path class="cls-11" d="M1059.29,916.46c0-1.27,0-2.55,0-3.82.21-.7.48-.72.79-.07v3.84C1059.86,917,1059.59,917,1059.29,916.46Z" transform="translate(-50.17 -40.89)"/><path class="cls-12" d="M1059.28,174.28a1.48,1.48,0,0,1,.81.05v3.84c-.3.66-.56.64-.79,0Z" transform="translate(-50.17 -40.89)"/><path class="cls-13" d="M918,1050.81a7.38,7.38,0,0,1,.07-.81l3.8,0c.62.3.62.59,0,.85Z" transform="translate(-50.17 -40.89)"/><path class="cls-14" d="M915.26,41.72c-1.42.16-2.83.32-4-.83h3.84c.36.14.5.3.41.5S915.36,41.72,915.26,41.72Z" transform="translate(-50.17 -40.89)"/><path class="cls-14" d="M200.89,40.89c-1.13,1.15-2.54,1-3.95.83-.31-.23-.4-.43-.26-.6a.51.51,0,0,1,.37-.23Z" transform="translate(-50.17 -40.89)"/><path class="cls-15" d="M51,184.75a3.4,3.4,0,0,1-.84,3v-2.88A1.43,1.43,0,0,1,51,184.75Z" transform="translate(-50.17 -40.89)"/><path class="cls-16" d="M189.31,41.74c0-.28,0-.56.06-.85h2.88c.66.31.64.58,0,.81Z" transform="translate(-50.17 -40.89)"/><path class="cls-17" d="M1060.09,183a2.91,2.91,0,0,1-.86-2.94c.33-.59.62-.56.86.06Z" transform="translate(-50.17 -40.89)"/><path class="cls-18" d="M50.17,903.93A3.36,3.36,0,0,1,51,907a1.07,1.07,0,0,1-.81-.18Z" transform="translate(-50.17 -40.89)"/><path class="cls-16" d="M922.81,40.89a6.18,6.18,0,0,1,.06.85l-2.89,0c-.69-.23-.7-.5-.05-.81Z" transform="translate(-50.17 -40.89)"/><path class="cls-19" d="M915.26,41.72c0-.28-.09-.55-.13-.83H918c.64.25.66.54,0,.85Z" transform="translate(-50.17 -40.89)"/><path class="cls-20" d="M196.09,1050.81c0-.26,0-.52-.06-.79l2.9-.08a4.23,4.23,0,0,1,0,.87Z" transform="translate(-50.17 -40.89)"/><path class="cls-21" d="M197.05,40.89c0,.28-.06.56-.11.83h-2.81c-.61-.31-.59-.59,0-.84Z" transform="translate(-50.17 -40.89)"/><path class="cls-22" d="M921.85,1050.81a6.24,6.24,0,0,1,0-.86h1.91c0,.29,0,.57,0,.86Z" transform="translate(-50.17 -40.89)"/><path class="cls-23" d="M1059.29,916.46a2.68,2.68,0,0,0,.8-.05v1.92l-.39,0h-.4Z" transform="translate(-50.17 -40.89)"/><path class="cls-24" d="M1060.09,912.57l-.39.09-.4,0c0-.64,0-1.27,0-1.9.21-.71.49-.73.83-.09Z" transform="translate(-50.17 -40.89)"/><path class="cls-25" d="M1060.09,910.65a7.52,7.52,0,0,1-.83.09,2,2,0,0,1,.83-2Z" transform="translate(-50.17 -40.89)"/><path class="cls-26" d="M1060.09,180.09a4.15,4.15,0,0,1-.86-.06c0-.63,0-1.27.07-1.9a3,3,0,0,1,.79,0Z" transform="translate(-50.17 -40.89)"/><path class="cls-27" d="M918.06,41.74a6,6,0,0,1,0-.85h1.92c0,.27,0,.54.05.81Z" transform="translate(-50.17 -40.89)"/><path class="cls-28" d="M194.17,40.89a5.91,5.91,0,0,1,0,.84l-1.92,0c0-.27,0-.54,0-.81Z" transform="translate(-50.17 -40.89)"/><path class="cls-29" d="M792.35,319.28c-3.2,7.84-6.45,15.65-9.6,23.51Q696,559.74,609.2,776.7c-.91,2.27-1.7,4.51-4.17,5.55l-.48,0c-6.54.24-7.16-.18-9.49-6.05-.4-1-.49-2.19-1.44-2.93-3-2.67-4.33-6.24-5.7-9.82q-27.42-71.74-55-143.39-6.45-16.74-12.86-33.5a10.25,10.25,0,0,1-1.08-4.62,5.67,5.67,0,0,1,2-3.18c7.81-7.33,14.67-15.59,22.28-23.1,15.56-15.39,30.48-31.41,45.77-47.07q28.13-28.79,56-57.83,28.11-29.13,56.29-58.21c18.4-19.09,36.64-38.33,55.35-57.11,2.82-2.84,5.1-6.14,8-8.95,5.24-5.12,10.19-10.55,16.15-14.9.86-1.05,2.2-1.21,3.34-1.63,4.07-1.46,7.64.78,8.21,5.1A37.41,37.41,0,0,1,792.35,319.28Z" transform="translate(-50.17 -40.89)"/><path class="cls-4" d="M780.72,311.57a1.08,1.08,0,0,1,0,1.34q-1.46,1.59-3,3.12c-14.18,14.08-27.45,29.05-41.88,42.89-8.26,10-18.29,18.35-26.91,28-9.18,10.26-19.49,19.41-28.65,29.65-8.66,9.67-18.38,18.27-27,27.91-9.49,10.63-20.18,20.09-29.67,30.68-8.66,9.65-18.37,18.27-27,27.91-9.18,10.27-19.5,19.42-28.66,29.65-8.76,9.79-18.54,18.55-27.33,28.26-5.47,6-11.17,11.87-16.88,17.67-1.24,1.26-2.43,2.59-4.34,2.81-2.68,2.1-5.28.46-7.67-.47-17-6.6-34-13-51-19.56Q399.09,537.63,337.31,514c-2.88-1.09-5.56-2.4-7.55-4.83-1.62-1.42-3.76-1.69-5.65-2.48a7,7,0,0,1-.3-12.82c1.14-.56,2.34-1,3.53-1.49L592.48,386.51q91.86-36.7,183.74-73.38C777.69,312.54,779.22,312.09,780.72,311.57Z" transform="translate(-50.17 -40.89)"/><path class="cls-3" d="M329.76,509.21c1.81.06,3.36,1,5,1.6q90.31,34.66,180.61,69.36c1.33.51,2.73.86,4.09,1.29,1.76,1.36,2.2,3.47,2.93,5.38q12,31.27,24,62.56,22.9,59.65,45.79,119.31c.56,1.47,1.44,2.87,1.43,4.54-.41.32-.9.51-1.31.16-1-.83-1.89-1.72-2.79-2.62L332.05,513.32a36.23,36.23,0,0,1-2.57-2.83C329.15,510.09,329.43,509.59,329.76,509.21Z" transform="translate(-50.17 -40.89)"/></svg>